<svg xmlns="http://www.w3.org/2000/svg" viewBox="0 0 165.59 34.06"><defs><style>.cls-1{fill:#faa31b;}</style></defs><title>Asset 1</title><g id="Layer_2" data-name="Layer 2"><g id="Layer_1-2" data-name="Layer 1"><path class="cls-1" d="M25.37,19.34A8.61,8.61,0,0,1,27,24.62a8.16,8.16,0,0,1-3.1,6.77q-3.09,2.45-8.52,2.45H0V0H14.88q5.28,0,8.28,2.33a7.76,7.76,0,0,1,3,6.5,7.73,7.73,0,0,1-1.42,4.66,8.07,8.07,0,0,1-3.91,2.88A8.17,8.17,0,0,1,25.37,19.34ZM6.05,14.26h7.82q6.39,0,6.39-4.76A4.09,4.09,0,0,0,18.67,6a8.13,8.13,0,0,0-4.8-1.15H6.05ZM19.58,27.84a4.44,4.44,0,0,0,1.54-3.74,4.59,4.59,0,0,0-1.56-3.8,7.77,7.77,0,0,0-4.87-1.24H6.05V29h8.64A8,8,0,0,0,19.58,27.84Z"/><path class="cls-1" d="M31.69,10.15H47.55v3.43H35.92V20.1h11v3.39h-11v6.92H47.55v3.43H31.69Z"/><path class="cls-1" d="M54.07,33a7.1,7.1,0,0,1-2.85-3,9.94,9.94,0,0,1-1-4.58,9.84,9.84,0,0,1,1-4.57,7.08,7.08,0,0,1,2.85-3,8.64,8.64,0,0,1,4.36-1.07,9.75,9.75,0,0,1,3.22.53,7.17,7.17,0,0,1,2.54,1.49l-1,2.26a8.53,8.53,0,0,0-2.28-1.34,6.81,6.81,0,0,0-2.4-.42,4.66,4.66,0,0,0-3.78,1.59,6.87,6.87,0,0,0-1.33,4.56A6.91,6.91,0,0,0,54.7,30a4.66,4.66,0,0,0,3.78,1.59,6.81,6.81,0,0,0,2.4-.42,8.53,8.53,0,0,0,2.28-1.34l1,2.26a7.17,7.17,0,0,1-2.54,1.49,9.75,9.75,0,0,1-3.22.53A8.64,8.64,0,0,1,54.07,33Z"/><path class="cls-1" d="M76.79,22V33.84H74.67V28.7H68.61v5.14H66.47V22h2.14V27h6.06V22Z"/><path class="cls-1" d="M87.21,31.07H81.44l-1.19,2.77H78.07L83.43,22h1.76l5.36,11.84H88.4Zm-.73-1.68-2.16-5-2.17,5Z"/><path class="cls-1" d="M91.81,22H94V32.06H99.5v1.78H91.81Z"/><path class="cls-1" d="M101.13,22h2.17V32.06h5.53v1.78h-7.7Z"/><path class="cls-1" d="M110.46,22h7.93v1.71h-5.82V27h5.48v1.7h-5.48v3.46h5.82v1.71h-7.93Z"/><path class="cls-1" d="M130.35,22V33.84h-1.63l-6.35-8.27v8.27h-2V22H122l6.35,8.24V22Z"/><path class="cls-1" d="M142.78,27.44v5.68a8.05,8.05,0,0,1-2,.64,12.21,12.21,0,0,1-2.34.23,6.55,6.55,0,0,1-3.18-.73,4.94,4.94,0,0,1-2.05-2.1,6.9,6.9,0,0,1-.72-3.25,6.84,6.84,0,0,1,.72-3.23,4.85,4.85,0,0,1,2-2.1,6.26,6.26,0,0,1,3.1-.74,7.39,7.39,0,0,1,2.33.37,4.89,4.89,0,0,1,1.82,1l-.73,1.56a5.66,5.66,0,0,0-1.62-.91,5.14,5.14,0,0,0-1.75-.28,3.48,3.48,0,0,0-2.77,1.08,4.83,4.83,0,0,0-.93,3.22q0,4.36,3.83,4.37a8.66,8.66,0,0,0,2.29-.32V29h-2.56V27.44Z"/><path class="cls-1" d="M145.21,22h7.93v1.71h-5.81V27h5.48v1.7h-5.48v3.46h5.81v1.71h-7.93Z"/><path class="cls-1" d="M155.11,22h4.37A6.19,6.19,0,0,1,164,23.55a5.79,5.79,0,0,1,1.6,4.36,5.81,5.81,0,0,1-1.6,4.37,6.2,6.2,0,0,1-4.51,1.56h-4.37Zm4.23,10.08q4.09,0,4.09-4.17t-4.09-4.15h-2.06v8.32Z"/></g></g></svg>